<svg id="visual" viewBox="0 0 960 540" width="960" height="540" xmlns="http://www.w3.org/2000/svg" xmlns:xlink="http://www.w3.org/1999/xlink" version="1.1"><path d="M0 82L20 77.5C40 73 80 64 120 65.8C160 67.7 200 80.3 240 84C280 87.7 320 82.3 360 81.3C400 80.3 440 83.7 480 85.3C520 87 560 87 600 87C640 87 680 87 720 88.8C760 90.7 800 94.3 840 90.8C880 87.3 920 76.7 940 71.3L960 66L960 0L940 0C920 0 880 0 840 0C800 0 760 0 720 0C680 0 640 0 600 0C560 0 520 0 480 0C440 0 400 0 360 0C320 0 280 0 240 0C200 0 160 0 120 0C80 0 40 0 20 0L0 0Z" fill="#003664"></path><path d="M0 185L20 188.5C40 192 80 199 120 203.5C160 208 200 210 240 217.2C280 224.3 320 236.7 360 234.8C400 233 440 217 480 209C520 201 560 201 600 204.5C640 208 680 215 720 215.8C760 216.7 800 211.3 840 212.3C880 213.3 920 220.7 940 224.3L960 228L960 64L940 69.3C920 74.7 880 85.3 840 88.8C800 92.3 760 88.7 720 86.8C680 85 640 85 600 85C560 85 520 85 480 83.3C440 81.7 400 78.3 360 79.3C320 80.3 280 85.7 240 82C200 78.3 160 65.7 120 63.8C80 62 40 71 20 75.5L0 80Z" fill="#002442"></path><path d="M0 255L20 259.5C40 264 80 273 120 278.3C160 283.7 200 285.3 240 293.3C280 301.3 320 315.7 360 313C400 310.3 440 290.7 480 280C520 269.3 560 267.7 600 273C640 278.3 680 290.7 720 288.8C760 287 800 271 840 269.3C880 267.7 920 280.3 940 286.7L960 293L960 226L940 222.3C920 218.7 880 211.3 840 210.3C800 209.3 760 214.7 720 213.8C680 213 640 206 600 202.5C560 199 520 199 480 207C440 215 400 231 360 232.8C320 234.7 280 222.3 240 215.2C200 208 160 206 120 201.5C80 197 40 190 20 186.5L0 183Z" fill="#001122"></path><path d="M0 374L20 379.3C40 384.7 80 395.3 120 393.5C160 391.7 200 377.3 240 381.8C280 386.3 320 409.7 360 407C400 404.3 440 375.7 480 367.5C520 359.3 560 371.7 600 379.7C640 387.7 680 391.3 720 382.3C760 373.3 800 351.7 840 354.3C880 357 920 384 940 397.5L960 411L960 291L940 284.7C920 278.3 880 265.7 840 267.3C800 269 760 285 720 286.8C680 288.7 640 276.3 600 271C560 265.7 520 267.3 480 278C440 288.7 400 308.3 360 311C320 313.7 280 299.3 240 291.3C200 283.3 160 281.7 120 276.3C80 271 40 262 20 257.5L0 253Z" fill="#000f1e"></path><path d="M0 541L20 541C40 541 80 541 120 541C160 541 200 541 240 541C280 541 320 541 360 541C400 541 440 541 480 541C520 541 560 541 600 541C640 541 680 541 720 541C760 541 800 541 840 541C880 541 920 541 940 541L960 541L960 409L940 395.5C920 382 880 355 840 352.3C800 349.7 760 371.3 720 380.3C680 389.3 640 385.7 600 377.7C560 369.7 520 357.3 480 365.5C440 373.7 400 402.3 360 405C320 407.7 280 384.3 240 379.8C200 375.3 160 389.7 120 391.5C80 393.3 40 382.7 20 377.3L0 372Z" fill="#000d1b"></path></svg>